<svg id="Слой_1" data-name="Слой 1" xmlns="http://www.w3.org/2000/svg" viewBox="0 0 222.62 243.15"><defs><style>.cls-1,.cls-2{fill:#fb0;}.cls-2,.cls-3{stroke:#1c1b1b;}.cls-2,.cls-3,.cls-5{stroke-miterlimit:10;}.cls-3{font-size:101.64px;}.cls-3,.cls-6{fill:#1c1b1b;font-family:ArialMT, Arial;}.cls-3,.cls-5{stroke-width:4px;}.cls-4,.cls-5{fill:#fff;stroke:#fff;}.cls-4{letter-spacing:0em;}.cls-6{font-size:16px;}.cls-7{letter-spacing:-0.02em;}</style></defs><title>uniq-yellow-border-logo</title><path class="cls-1" d="M710,525.55l-67.92,38.73a43.39,43.39,0,0,1-43.39-.24l-67.5-39.45a43.38,43.38,0,0,1-21.5-37.69l.42-78.19A43.4,43.4,0,0,1,532,371.25l67.92-38.73a43.4,43.4,0,0,1,43.39.23l67.5,39.46a43.39,43.39,0,0,1,21.49,37.69l-.42,78.19A43.39,43.39,0,0,1,710,525.55Z" transform="translate(-509.66 -326.82)"/><path class="cls-2" d="M702.06,520.92l-60,34.2a43.38,43.38,0,0,1-43.38-.24l-59.6-34.83a43.39,43.39,0,0,1-21.49-37.69l.37-69a43.38,43.38,0,0,1,21.9-37.46l60-34.19a43.4,43.4,0,0,1,43.39.23l59.59,34.84a43.37,43.37,0,0,1,21.49,37.69l-.37,69A43.39,43.39,0,0,1,702.06,520.92Z" transform="translate(-509.66 -326.82)"/><text class="cls-3" transform="translate(17.74 162.44) scale(0.83 1)">U<tspan class="cls-4" x="73.4" y="0">NQ</tspan></text><circle class="cls-5" cx="127.27" cy="75.19" r="4.28"/><text class="cls-6" transform="translate(108.31 81.38) scale(0.99 1)"><tspan class="cls-7">Y</tspan><tspan x="10.38" y="0" xml:space="preserve">    U</tspan></text></svg>