<svg id="Слой_1" data-name="Слой 1" xmlns="http://www.w3.org/2000/svg" viewBox="0 0 222.62 243.15"><defs><style>.cls-1{fill:#fb0;}.cls-2{font-size:101.64px;stroke:#1c1b1b;}.cls-2,.cls-5{fill:#1c1b1b;font-family:ArialMT, Arial;}.cls-2,.cls-4{stroke-miterlimit:10;stroke-width:4px;}.cls-3,.cls-4{fill:#fff;stroke:#fff;}.cls-3{letter-spacing:0em;}.cls-5{font-size:16px;}.cls-6{letter-spacing:-0.02em;}</style></defs><title>uniq-yellow-logo</title><path class="cls-1" d="M501,428.22,433.06,467a43.37,43.37,0,0,1-43.39-.24l-67.5-39.45a43.37,43.37,0,0,1-21.49-37.69l.42-78.19A43.39,43.39,0,0,1,323,273.92l67.92-38.73a43.37,43.37,0,0,1,43.39.24l67.5,39.45a43.37,43.37,0,0,1,21.49,37.69l-.41,78.19A43.4,43.4,0,0,1,501,428.22Z" transform="translate(-300.68 -229.5)"/><text class="cls-2" transform="translate(17.74 162.44) scale(0.83 1)">U<tspan class="cls-3" x="73.4" y="0">NQ</tspan></text><circle class="cls-4" cx="127.27" cy="75.19" r="4.28"/><text class="cls-5" transform="translate(107.79 81.2) scale(0.99 1)"><tspan class="cls-6">Y</tspan><tspan x="10.38" y="0" xml:space="preserve">    U</tspan></text></svg>