<svg id="Слой_1" data-name="Слой 1" xmlns="http://www.w3.org/2000/svg" viewBox="0 0 225.62 246.15"><defs><style>.cls-1{font-size:16px;}.cls-1,.cls-4{fill:#1c1b1b;font-family:ArialMT, Arial;}.cls-2{letter-spacing:-0.02em;}.cls-3{fill:none;stroke-width:3px;}.cls-3,.cls-4{stroke:#1c1b1b;}.cls-3,.cls-4,.cls-6{stroke-miterlimit:10;}.cls-4{font-size:101.64px;}.cls-4,.cls-6{stroke-width:4px;}.cls-5,.cls-6{fill:#fb0;stroke:#fb0;}.cls-5{letter-spacing:0em;}</style></defs><title>uniq-transparent-logo</title><text class="cls-1" transform="translate(109.81 82.64) scale(0.99 1)"><tspan class="cls-2">Y</tspan><tspan x="10.38" y="0" xml:space="preserve">    U</tspan></text><path class="cls-3" d="M492,497.55l-67.92,38.73a43.39,43.39,0,0,1-43.39-.24l-67.5-39.45a43.37,43.37,0,0,1-21.49-37.69l.41-78.19A43.4,43.4,0,0,1,314,343.25l67.92-38.73a43.39,43.39,0,0,1,43.39.23l67.5,39.46a43.37,43.37,0,0,1,21.49,37.69l-.42,78.19A43.39,43.39,0,0,1,492,497.55Z" transform="translate(-290.16 -297.32)"/><text class="cls-4" transform="translate(19.24 163.94) scale(0.83 1)">U<tspan class="cls-5" x="73.4" y="0">NQ</tspan></text><circle class="cls-6" cx="128.77" cy="76.69" r="4.28"/></svg>