<svg id="Слой_1" data-name="Слой 1" xmlns="http://www.w3.org/2000/svg" viewBox="0 0 225.6 246.15"><defs><style>.cls-1,.cls-4,.cls-6{fill:none;}.cls-1,.cls-4{stroke:#1c1b1b;}.cls-1,.cls-4,.cls-6,.cls-7{stroke-miterlimit:10;}.cls-1{stroke-width:3px;}.cls-2,.cls-3,.cls-4,.cls-5,.cls-6{isolation:isolate;}.cls-3,.cls-4,.cls-5,.cls-6{font-size:101.64px;font-family:ArialMT, Arial;}.cls-3{fill:#1c1b1b;}.cls-4,.cls-6,.cls-7{stroke-width:4px;}.cls-5,.cls-7{fill:#fb0;}.cls-6,.cls-7{stroke:#fb0;}</style></defs><title>uniq-transparent-logo</title><path class="cls-1" d="M201.81,200.23,133.89,239a43.42,43.42,0,0,1-43.39-.24L23,199.27A43.37,43.37,0,0,1,1.51,161.58l.41-78.19A43.39,43.39,0,0,1,23.81,45.93L91.73,7.2a43.39,43.39,0,0,1,43.39.23l67.5,39.46a43.37,43.37,0,0,1,21.49,37.69l-.42,78.19A43.4,43.4,0,0,1,201.81,200.23Z" transform="translate(-0.01 0)"/><g class="cls-2"><text class="cls-3" transform="translate(18.2 161.94) scale(0.83 1)">U</text><text class="cls-4" transform="translate(18.2 161.94) scale(0.83 1)">U</text><text class="cls-5" transform="translate(79.12 161.94) scale(0.83 1)">NQ</text><text class="cls-6" transform="translate(79.12 161.94) scale(0.83 1)">NQ</text></g><circle class="cls-7" cx="129.5" cy="75.95" r="4.54"/></svg>