<svg id="Слой_1" data-name="Слой 1" xmlns="http://www.w3.org/2000/svg" viewBox="0 0 222.61 243.15"><defs><style>.cls-1,.cls-2{fill:#fb0;}.cls-2,.cls-5{stroke:#1c1b1b;}.cls-2,.cls-5,.cls-7,.cls-8{stroke-miterlimit:10;}.cls-3,.cls-4,.cls-5,.cls-6,.cls-7{isolation:isolate;}.cls-4,.cls-5,.cls-6,.cls-7{font-size:101.64px;font-family:ArialMT, Arial;}.cls-4{fill:#1c1b1b;}.cls-5,.cls-7{fill:none;}.cls-5,.cls-7,.cls-8{stroke-width:4px;}.cls-6,.cls-8{fill:#fff;}.cls-7,.cls-8{stroke:#fff;}</style></defs><title>uniq-yellow-border-logo</title><path class="cls-1" d="M200.32,198.73,132.4,237.46A43.42,43.42,0,0,1,89,237.22l-67.5-39.45A43.36,43.36,0,0,1,0,160.08L.43,81.89A43.37,43.37,0,0,1,22.32,44.43L90.23,5.7a43.39,43.39,0,0,1,43.39.23l67.5,39.46a43.35,43.35,0,0,1,21.49,37.69l-.41,78.19A43.41,43.41,0,0,1,200.32,198.73Z" transform="translate(0 0)"/><path class="cls-2" d="M192.37,194.1l-60,34.2A43.4,43.4,0,0,1,89,228.06L29.4,193.23A43.36,43.36,0,0,1,7.91,155.54l.37-69a43.36,43.36,0,0,1,21.9-37.46l60-34.19a43.4,43.4,0,0,1,43.39.23L193.16,50a43.39,43.39,0,0,1,21.49,37.69l-.37,69A43.4,43.4,0,0,1,192.37,194.1Z" transform="translate(0 0)"/><g class="cls-3"><text class="cls-4" transform="translate(16.71 160.44) scale(0.83 1)">U</text><text class="cls-5" transform="translate(16.71 160.44) scale(0.83 1)">U</text><text class="cls-6" transform="translate(77.63 160.44) scale(0.83 1)">NQ</text><text class="cls-7" transform="translate(77.63 160.44) scale(0.83 1)">NQ</text></g><circle class="cls-8" cx="127.83" cy="74.45" r="4.55"/></svg>