<svg id="Слой_1" data-name="Слой 1" xmlns="http://www.w3.org/2000/svg" viewBox="0 0 222.62 243.2"><defs><style>.cls-1{fill:#fb0;}.cls-2,.cls-3,.cls-4,.cls-5,.cls-6{isolation:isolate;}.cls-3,.cls-4,.cls-5,.cls-6{font-size:101.64px;font-family:ArialMT, Arial;}.cls-3{fill:#1c1b1b;}.cls-4,.cls-6{fill:none;}.cls-4{stroke:#1c1b1b;}.cls-4,.cls-6,.cls-7{stroke-miterlimit:10;stroke-width:4px;}.cls-5,.cls-7{fill:#fff;}.cls-6,.cls-7{stroke:#fff;}</style></defs><title>uniq-yellow-logo</title><path class="cls-1" d="M200.32,198.7l-67.94,38.78A43.37,43.37,0,0,1,89,237.24l-67.5-39.45A43.37,43.37,0,0,1,0,160.1L.42,81.91A43.41,43.41,0,0,1,22.32,44.4L90.24,5.67a43.37,43.37,0,0,1,43.39.24l67.5,39.45a43.37,43.37,0,0,1,21.49,37.69l-.41,78.19A43.39,43.39,0,0,1,200.32,198.7Z" transform="translate(0 0.03)"/><g class="cls-2"><text class="cls-3" transform="translate(16.74 160.45) scale(0.83 1)">U</text><text class="cls-4" transform="translate(16.74 160.45) scale(0.83 1)">U</text><text class="cls-5" transform="translate(77.66 160.45) scale(0.83 1)">NQ</text><text class="cls-6" transform="translate(77.66 160.45) scale(0.83 1)">NQ</text></g><circle class="cls-7" cx="128" cy="75.47" r="4.54"/></svg>