<svg id="Слой_1" data-name="Слой 1" xmlns="http://www.w3.org/2000/svg" viewBox="0 0 222.62 243.15"><defs><style>.cls-1,.cls-2{fill:#fb0;}.cls-2{stroke:#1c1b1b;stroke-miterlimit:10;}</style></defs><title>uniq-you-not-found-logo</title><path class="cls-1" d="M477.12,476.77,409.2,515.5a43.39,43.39,0,0,1-43.39-.23l-67.5-39.46a43.37,43.37,0,0,1-21.49-37.69l.41-78.18a43.38,43.38,0,0,1,21.9-37.46l67.92-38.73a43.39,43.39,0,0,1,43.39.23l67.5,39.45a43.39,43.39,0,0,1,21.49,37.7L499,439.31A43.39,43.39,0,0,1,477.12,476.77Z" transform="translate(-276.82 -278.05)"/><path class="cls-2" d="M469.21,472.15l-60,34.19a43.39,43.39,0,0,1-43.39-.23l-59.59-34.83a43.41,43.41,0,0,1-21.5-37.7l.37-69A43.4,43.4,0,0,1,307,327.1l60-34.19a43.39,43.39,0,0,1,43.39.23L470,328a43.38,43.38,0,0,1,21.5,37.69l-.37,69A43.4,43.4,0,0,1,469.21,472.15Z" transform="translate(-276.82 -278.05)"/><path d="M447.3,365.72c-1.75,6.42-4.5,13.49-10.23,17.42-5.91,4-12.89,3.35-17.56-2-.91-1.05-9.46-14.9-10.94-11.9-3,6.24,1,13.47,6.72,18.36,1.49,2,2.75,3.41,3.22,3.29.17,0-.13-.64-.3-1.1.36.23.71.47,1.06.67,0,.59,2.35,2.06,4.18,3.11,5.54.49,8.7,1.73,13.89-1.22,2.9-1.66-1.27-.4-1.11-.29.87-.41,1.69-.79,2.49-1.22,3.27,1.32,4-1.39,4.6-3.25.24-.22.46-.46.69-.68.18.19.49-.13.56-.2a.65.65,0,0,0-.31-.05,30.85,30.85,0,0,0,2.53-2.81c-.16.22.13.13.33-.33a2,2,0,0,0-.33.33,37.21,37.21,0,0,0,3-4.48c.33,0,.57,0,.48-.12,0,.07-.12,0-.32-.17.42-.74.82-1.51,1.2-2.28.09.26.17.57.22.72.1,0,0-.64-.1-1a51,51,0,0,0,3.28-8.8C455.8,363.11,448.56,361.1,447.3,365.72Zm-24.72,26.35.17.08a1.26,1.26,0,0,1-.15.2C422.45,392.28,422.5,392.16,422.58,392.07Zm11.1.66c0,.1.08.22.13.38Zm2.18-.33-.38.16a1.36,1.36,0,0,1,0-.33l.19-.06A1.24,1.24,0,0,1,435.86,392.4Zm5.86-3c-1.14,1.37-1.23.58,0,0Zm.63-.85a.18.18,0,0,1,.06-.25C442.44,388.37,442.44,388.45,442.35,388.57Z" transform="translate(-276.82 -278.05)"/><path d="M354.59,392.75c1.34-.24,2.68-2,3.61-3.54a33.75,33.75,0,0,0,2.55-2.36c.34.08.59.1.52-.07,0,.07-.11,0-.29-.17.47-.49.93-1,1.35-1.52.07,0,.09,0,.1-.1,3.53-4.29,5.25-9.1,2.4-13-3.95-5.38-12.33,16.24-20.67,16.75-6.17.37-11.05-3.09-13.62-8.48-.44-.91-5.55-17.1-8-11.12-2.35,5.79-.42,11.89,3.46,16.83,1.37,3.24,2.7,6,3.19,5.94s-1.4-3.36,1.33-.51c-1.9,0,1.13,2.26,3.21,3.73,5.52,1,7.14,3.67,13.11,2.22,3-.55-.61-.81-.94-.63a5.15,5.15,0,0,1,.45-1c.37-.09.75-.19,1.15-.32,0,0,.07,0,.11.07.46-.25.91-.43,1.38-.63,0,0,.08,0,.12,0s.08,0,.24.41c-.05,1.15-.32.22-.36-.29a4.64,4.64,0,0,0-.78,1.07C352.53,399.85,353.59,392.93,354.59,392.75Zm-25.13-3.16.15.13a.79.79,0,0,1-.25,0C329.38,389.68,329.43,389.65,329.46,389.59Zm3.56,4.26c-.39-.23.81-.71,0,0Zm.75.13a.47.47,0,0,1,.37-.43C334.11,393.92,334,394.06,333.77,394Zm6.22,1.67c-.09,0-.12-.1-.13-.25l.2,0C340.07,395.58,340.07,395.69,340,395.65Zm3.38,1.4s0-1.68,0,0Zm1.71,0c.1-.56.21-.58.4,0Zm4.38-2.19a.51.51,0,0,1,0-.13c.14,0,.27-.12.41-.18a5,5,0,0,1,.25.6C350.29,395.55,349.52,395,349.46,394.84Zm1-.57L351,394a3.32,3.32,0,0,0-.21.4C350.65,394.76,350.51,394.58,350.46,394.27Zm1.31,1.39c-1,.91-1.74.61,0,0Zm.77-.71s-.1-.11,0,0C352.06,394.46,352.94,394.6,352.54,395Z" transform="translate(-276.82 -278.05)"/><path d="M414.47,432.59c.47-1.38-.16-3.23-1-4.92a7.7,7.7,0,0,1,1.24,2.1c-.92-3-4.89-8.61-8.37-11.31-.8-.31-2.05-.72-3.49-1.18a23,23,0,0,0-2.7-.88c-2.67-.89-5.14-1.79-5.39-2.31-.07-.16,0-.28.38-.35a45.22,45.22,0,0,0-7.63.44c.39-.11.82-.34.56-.41s-1.36.37-1,.46a24.6,24.6,0,0,0-7,1.88c-2.17.4-6.09,4.17-8.72,6.41.42.46-.26.35-.28.28-.36.25-.71.54-1,.76.13-.38-.29,0-.48.33a1.31,1.31,0,0,1-.74.28,32,32,0,0,0-1.85,5c-.11.21-.22.42-.32.64a15.38,15.38,0,0,0-1.18,3.61c-.75,3.84,1.64,2.91,3.38,1.53,2.56-.5,6.54-2.35,9.82-3.9,1.38-.3,2.4-.63,2.41-1a1.36,1.36,0,0,0-.2,0l.53-.25,1.27-.12a9.49,9.49,0,0,0-1.5.88c.27-.08,1.06-.53,1.79-.91,2.54-.21,5.87-.37,8.89-.3,0,.57,1.64.49,1.18.2l-.33-.17.53,0c3.27,1.15,6.35,3,10,4.39,7.21,2.62,9.91.44,9.87-3.11a2.48,2.48,0,0,1,0,1.91c-.29.62-.45,1-.53,1.22-.59.32-1.15.54-1.1.76a3.36,3.36,0,0,0,2.82-1.6C415,432.38,414.85,432.38,414.47,432.59Zm-8.87-13.95-.14-.1C405.69,418.64,405.7,418.66,405.6,418.64ZM387,415.42c-.25.3-.4.27-.44-.09Zm0,.16c.27,0,.23.15-.1.33C386.38,415.84,386.41,415.73,387,415.58Zm-2-.22c.37.1.37.29,0,.56C384.57,415.88,384.55,415.69,385,415.36Zm-1.12.52-.38.32C382.89,416.49,383.39,415.92,383.84,415.88Zm-2,.37c-.18.23-.47.05,0,0ZM378.23,418c.25,0,.28.07.08.26C378,418.39,377.92,418.31,378.23,418ZM377,419.07c-1,.19-.71-.21,0,0Zm-.14,0Zm-1.43,1c0,.31-.27.33-.52.38C375.17,419.81,375.37,419.71,375.4,420Zm-2.38,1.7a4.86,4.86,0,0,0-.53.58C371.92,422.35,372.78,421.64,373,421.69Zm-3.23,2.46s.39-.16,0,0Zm43.78,6.42-.19-.66C413.71,430,413.8,430.29,413.57,430.57Zm.21.79c.56,1.18-.19,1.85-1,2.3A11.7,11.7,0,0,0,413.78,431.36Zm-.19,2.15c.16-.12.56-.15,0,0Z" transform="translate(-276.82 -278.05)"/></svg>